<?xml version="1.0" encoding="utf-8"?>
<svg version="1.1" xmlns="http://www.w3.org/2000/svg" viewBox="0 0 283.5 56.7">
  <rect fill="#E41B12" width="283.5" height="56.7"/>
  <path fill="#FFFFFF" d="M160,34.9c0-0.7,0-10.8,0-10.8c0-4.5-2.3-6.4-7.3-6.4c0,0,0,0,0,0c-0.1,0-0.2,0-0.3,0h-5.7v4
	h5.4c2.4,0,2.9,0.3,2.9,2.9v0.6c-0.6,0-2.5,0-2.5,0c-2.9,0-8.5,1.5-8.5,7.1c0,3.9,2.5,6.5,6.3,6.5l0,0c0.1,0,0.3,0,0.6,0h12.3v-4
	H160z M155.1,34.9h-3.6c-1.4,0-2.5-1.2-2.5-2.8c0-2.8,3.5-2.9,3.9-2.9c0,0,1.5,0,2.2,0V34.9z M252.9,34.9c0-0.7,0-10.8,0-10.8
	c0-4.5-2.3-6.4-7.3-6.4c0,0,0,0,0,0c-0.1,0-0.2,0-0.3,0h-5.7v4h5.4c2.4,0,2.9,0.3,2.9,2.9v0.6c-0.6,0-2.5,0-2.5,0
	c-2.9,0-8.5,1.5-8.5,7.1c0,3.9,2.5,6.5,6.3,6.5c0,0,0,0,0,0c0.1,0,0.3,0,0.6,0h12.3v-4H252.9z M248,34.9h-3.6
	c-1.4,0-2.5-1.2-2.5-2.8c0-2.8,3.5-2.9,3.9-2.9c0,0,1.5,0,2.2,0V34.9z M97.5,29.4L97.5,29.4C97.6,29.4,97.5,29.4,97.5,29.4
	L97.5,29.4z M101.8,27.9c0-8.1-2-10.8-8.1-10.8c-6.3,0-8.7,3.2-8.7,11.3c0,7.5,2.6,10.5,8.9,10.5h6.8v-4h-6.8
	c-1.4,0-2.3-0.3-2.8-0.8c-0.8-0.8-0.9-2.2-0.9-4.3c0.7,0,11.7,0,11.7,0L101.8,27.9z M90.1,25.8c0.1-4,1.2-4.8,3.3-4.8
	c2.6,0,3.3,0.5,3.4,4.8H90.1z M108.4,21.4c0-2,1.6-3.7,3.7-3.7l0,0h6v4h-4.7V39h-5V21.4 M171.3,17.7h19.2c0.1,0,0.2,0,0.3,0
	c0,0,0,0,0,0c4.6,0,5,3,5,6.2V39h-5V24.6c0-2.3-0.7-2.8-1.8-2.8h-3.7V39h-4.9V21.7h-5.5V39h-4.9V21.7h-3.3v-4h0.4H171.3z M46.5,17.7
	h8.5c1,0,1.4,0,1.6,0c0,0-0.1,0-0.1,0c4.6,0,5,3,5,6.2V39h-5V24.6c0-2.3-0.7-2.8-1.8-2.8h-4.7V39h-5V21.7h-3.3v-4h0.4H46.5z
	 M206.4,17.7h19.2c0.1,0,0.2,0,0.3,0c0,0,0,0,0,0c4.6,0,5,3,5,6.2V39h-5V24.6c0-2.3-0.7-2.8-1.8-2.8h-3.7V39h-4.9V21.7H210V39h-4.9
	V21.7h-3.3v-4h0.4H206.4z M131.3,17.7c-6.7,0-9.9,3.7-9.9,11.5c0,5.9,3.3,9.8,8.5,9.8c0,0,0,0,0,0c0.1,0,0.3,0,0.5,0h2.3
	c0,4-0.7,5.8-5,5.8l0,0l-0.1,0l-4.6,0h-0.4v4h4.6c9.3,0,10.5-5.1,10.5-9.5V21.7h3.3v-4H131.3z M132.7,34.9h-2.5
	c-2.3,0-3.9-2.4-3.9-5.8c0-6.5,2.4-7.4,4.4-7.4h2V34.9z M75.6,11.6v6.1h4.7v4h-4.7v13.2h4.7v4h-6c-2,0-3.7-1.6-3.7-3.6v-2.8V21.7
	h-3.3v-4c0,0,2.7,0,3.3,0v-6.1h4.6H75.6z M35.5,11.6V39h-5V11.6h4.6H35.5z"/>
</svg>
